<?xml version="1.0" encoding="utf-8"?>
<!-- Generator: Adobe Illustrator 23.0.6, SVG Export Plug-In . SVG Version: 6.00 Build 0)  -->
<svg version="1.1" id="图层_1" xmlns="http://www.w3.org/2000/svg" xmlns:xlink="http://www.w3.org/1999/xlink" x="0px" y="0px"
	 viewBox="0 0 300 100" style="enable-background:new 0 0 300 100;" xml:space="preserve">
<style type="text/css">
	.st0{fill:#B3C73A;}
	.st1{font-family:'Courier';}
	.st2{font-size:69.6657px;}
	.st3{letter-spacing:-2.2;}
	.st4{fill:none;stroke:#B3C73A;stroke-width:4;stroke-miterlimit:10;}
	.st5{fill-rule:evenodd;clip-rule:evenodd;fill:#B3C73A;}
	.st6{fill-rule:evenodd;clip-rule:evenodd;fill:#040000;stroke:#B3C73A;stroke-miterlimit:10;}
	.st7{fill:none;stroke:#B3C73A;stroke-miterlimit:10;}
</style>
<text transform="matrix(0.9224 0 0 1 102.8828 67.3057)" class="st0 st1 st2 st3">Monju</text>
<circle class="st4" cx="54.7" cy="49.5" r="39.2"/>
<polygon class="st5" points="46.7,38.5 63.6,38.5 61.6,45.8 48.6,45.8 "/>
<path class="st5" d="M60.1,46.2h-10l-2,7.4h0l5.2,10.2H55V54h0.3c-1.1,0-2-0.9-2-2s0.9-2,2-2s2,0.9,2,2s-0.9,2-2,2h0.4v9.8h1.8
	l4.8-10.2L60.1,46.2z"/>
<g>
	<path class="st5" d="M90.6,67.1c-0.8,0.5-1.8,0.2-2.3-0.6c-0.5-0.8-0.2-1.8,0.6-2.3c0.8-0.5,1.8-0.2,2.3,0.6
		C91.7,65.6,91.4,66.6,90.6,67.1"/>
	<path class="st5" d="M94.2,48.5c-0.8,0.5-1.8,0.2-2.3-0.6c-0.5-0.8-0.2-1.8,0.6-2.3s1.8-0.2,2.3,0.6C95.2,46.9,95,48,94.2,48.5"/>
	<path class="st5" d="M94.2,48.5c-0.8,0.5-1.8,0.2-2.3-0.6c-0.5-0.8-0.2-1.8,0.6-2.3s1.8-0.2,2.3,0.6C95.2,46.9,95,48,94.2,48.5"/>
	<path class="st5" d="M72.3,39.6c-0.8,0.5-1.8,0.2-2.3-0.6c-0.5-0.8-0.2-1.8,0.6-2.3s1.8-0.2,2.3,0.6S73.1,39.2,72.3,39.6"/>
	<path class="st5" d="M69.9,64.9c-0.8,0.5-1.8,0.2-2.3-0.6c-0.5-0.8-0.2-1.8,0.6-2.3s1.8-0.2,2.3,0.6C70.9,63.4,70.7,64.5,69.9,64.9
		"/>
	<path class="st5" d="M51.5,88.5c-0.8,0.5-1.8,0.2-2.3-0.6s-0.2-1.8,0.6-2.3c0.8-0.5,1.8-0.2,2.3,0.6C52.6,87,52.3,88,51.5,88.5"/>
	<path class="st5" d="M42,65.1c-0.8,0.5-1.8,0.2-2.3-0.6c-0.5-0.8-0.2-1.8,0.6-2.3c0.8-0.5,1.8-0.2,2.3,0.6
		C43,63.6,42.7,64.6,42,65.1"/>
	<path class="st5" d="M20.9,66.4c-0.8,0.5-1.8,0.2-2.3-0.6s-0.2-1.8,0.6-2.3s1.8-0.2,2.3,0.6C22,64.9,21.7,65.9,20.9,66.4"/>
	<path class="st5" d="M20.4,36.5c-0.8,0.5-1.8,0.2-2.3-0.6c-0.5-0.8-0.2-1.8,0.6-2.3s1.8-0.2,2.3,0.6C21.5,35,21.2,36,20.4,36.5"/>
	<path class="st5" d="M41.7,14.5c-0.8,0.5-1.8,0.2-2.3-0.6s-0.2-1.8,0.6-2.3c0.8-0.5,1.8-0.2,2.3,0.6S42.5,14,41.7,14.5"/>
	<path class="st5" d="M70.3,15.1c-0.8,0.5-1.8,0.2-2.3-0.6c-0.5-0.8-0.2-1.8,0.6-2.3s1.8-0.2,2.3,0.6C71.4,13.6,71.1,14.6,70.3,15.1
		"/>
	<path class="st5" d="M39.9,39.9c-0.8,0.5-1.8,0.2-2.3-0.6c-0.5-0.8-0.2-1.8,0.6-2.3c0.8-0.5,1.8-0.2,2.3,0.6S40.7,39.4,39.9,39.9"
		/>
	<path class="st5" d="M84.9,25.5c-0.5,0.3-1.1,0.1-1.4-0.4s-0.1-1.1,0.4-1.4c0.5-0.3,1.1-0.1,1.4,0.4C85.5,24.5,85.4,25.2,84.9,25.5
		"/>
	<path class="st5" d="M70.3,86.9c-0.5,0.3-1.1,0.1-1.4-0.4s-0.1-1.1,0.4-1.4s1.1-0.1,1.4,0.4C71,85.9,70.8,86.6,70.3,86.9"/>
	<path class="st5" d="M30.1,80.9c-0.5,0.3-1.1,0.1-1.4-0.4c-0.3-0.5-0.1-1.1,0.4-1.4s1.1-0.1,1.4,0.4C30.8,80,30.6,80.6,30.1,80.9"
		/>
</g>
<g>
	
		<rect x="80.6" y="35.3" transform="matrix(0.8295 -0.5585 0.5585 0.8295 -15.2541 53.9475)" class="st6" width="0.2" height="33.2"/>
	
		<rect x="80.6" y="35.3" transform="matrix(0.8295 -0.5585 0.5585 0.8295 -15.2541 53.9475)" class="st7" width="0.2" height="33.2"/>
	
		<rect x="82.3" y="30.9" transform="matrix(0.3793 -0.9253 0.9253 0.3793 11.7396 102.7206)" class="st6" width="0.2" height="23.4"/>
	
		<rect x="82.3" y="30.9" transform="matrix(0.3793 -0.9253 0.9253 0.3793 11.7396 102.7206)" class="st7" width="0.2" height="23.4"/>
	
		<rect x="57.6" y="50.8" transform="matrix(9.970174e-02 -0.995 0.995 9.970174e-02 12.622 115.8587)" class="st6" width="25.4" height="0.2"/>
	
		<rect x="57.6" y="50.8" transform="matrix(9.970174e-02 -0.995 0.995 9.970174e-02 12.622 115.8587)" class="st7" width="25.4" height="0.2"/>
	<polygon class="st6" points="90.2,65.7 90.2,65.9 68.9,63.9 69,63.7 	"/>
	<polygon class="st7" points="90.2,65.7 90.2,65.9 68.9,63.9 69,63.7 	"/>
	
		<rect x="69.2" y="64.7" transform="matrix(0.9999 -1.250027e-02 1.250027e-02 0.9999 -0.9357 0.8724)" class="st6" width="0.2" height="21.1"/>
	
		<rect x="69.2" y="64.7" transform="matrix(0.9999 -1.250027e-02 1.250027e-02 0.9999 -0.9357 0.8724)" class="st7" width="0.2" height="21.1"/>
	<polygon class="st6" points="68.9,63.4 69.1,63.6 50.8,87.1 50.6,87 	"/>
	<polygon class="st7" points="68.9,63.4 69.1,63.6 50.8,87.1 50.6,87 	"/>
	
		<rect x="41.2" y="63.6" transform="matrix(1 -8.345561e-03 8.345561e-03 1 -0.5301 0.462)" class="st6" width="27.8" height="0.2"/>
	
		<rect x="41.2" y="63.6" transform="matrix(1 -8.345561e-03 8.345561e-03 1 -0.5301 0.462)" class="st7" width="27.8" height="0.2"/>
	<rect x="45.8" y="62.9" transform="matrix(0.922 -0.3871 0.3871 0.922 -25.6748 23.649)" class="st6" width="0.2" height="25.4"/>
	<rect x="45.8" y="62.9" transform="matrix(0.922 -0.3871 0.3871 0.922 -25.6748 23.649)" class="st7" width="0.2" height="25.4"/>
	<polygon class="st6" points="69.2,63.4 69.3,63.7 28.7,80.6 28.7,80.3 	"/>
	<polygon class="st7" points="69.2,63.4 69.3,63.7 28.7,80.6 28.7,80.3 	"/>
	<polygon class="st6" points="40.8,63.7 41.1,63.8 29.7,80 29.4,79.8 	"/>
	<polygon class="st7" points="40.8,63.7 41.1,63.8 29.7,80 29.4,79.8 	"/>
	<polygon class="st6" points="69.4,85.6 69.4,85.9 30.2,80 30.2,79.8 	"/>
	<polygon class="st7" points="69.4,85.6 69.4,85.9 30.2,80 30.2,79.8 	"/>
	<polygon class="st6" points="93.4,46.9 93.6,47 69.7,86.1 69.5,86 	"/>
	<polygon class="st7" points="93.4,46.9 93.6,47 69.7,86.1 69.5,86 	"/>
	<rect x="55.9" y="43.8" transform="matrix(0.3591 -0.9333 0.9333 0.3591 8.3643 99.9349)" class="st6" width="42.1" height="0.2"/>
	<rect x="55.9" y="43.8" transform="matrix(0.3591 -0.9333 0.9333 0.3591 8.3643 99.9349)" class="st7" width="42.1" height="0.2"/>
	<rect x="68.5" y="30.9" transform="matrix(0.6924 -0.7215 0.7215 0.6924 1.5593 65.7593)" class="st6" width="18.7" height="0.2"/>
	<rect x="68.5" y="30.9" transform="matrix(0.6924 -0.7215 0.7215 0.6924 1.5593 65.7593)" class="st7" width="18.7" height="0.2"/>
	
		<rect x="66.5" y="55.2" transform="matrix(0.8253 -0.5647 0.5647 0.8253 -17.0653 55.4949)" class="st6" width="29.3" height="0.2"/>
	
		<rect x="66.5" y="55.2" transform="matrix(0.8253 -0.5647 0.5647 0.8253 -17.0653 55.4949)" class="st7" width="29.3" height="0.2"/>
	
		<rect x="19.7" y="64.4" transform="matrix(0.9973 -7.290285e-02 7.290285e-02 0.9973 -4.6215 2.3861)" class="st6" width="21.3" height="0.2"/>
	
		<rect x="19.7" y="64.4" transform="matrix(0.9973 -7.290285e-02 7.290285e-02 0.9973 -4.6215 2.3861)" class="st7" width="21.3" height="0.2"/>
	<polygon class="st6" points="41.5,63.7 41.3,63.8 38.7,38.2 38.9,38.2 	"/>
	<polygon class="st7" points="41.5,63.7 41.3,63.8 38.7,38.2 38.9,38.2 	"/>
	<polygon class="st6" points="71.7,37.9 71.7,38.1 38.8,38.3 38.8,38.1 	"/>
	<polygon class="st7" points="71.7,37.9 71.7,38.1 38.8,38.3 38.8,38.1 	"/>
	
		<rect x="70.3" y="13.6" transform="matrix(0.9972 -7.499877e-02 7.499877e-02 0.9972 -1.7388 5.3502)" class="st6" width="0.2" height="24.4"/>
	
		<rect x="70.3" y="13.6" transform="matrix(0.9972 -7.499877e-02 7.499877e-02 0.9972 -1.7388 5.3502)" class="st7" width="0.2" height="24.4"/>
	<polygon class="st6" points="93.8,46.7 93.6,46.8 69.8,13.6 69.9,13.5 	"/>
	<polygon class="st7" points="93.8,46.7 93.6,46.8 69.8,13.6 69.9,13.5 	"/>
	
		<rect x="62.5" y="-3.6" transform="matrix(0.2543 -0.9671 0.9671 0.2543 28.5396 74.4957)" class="st6" width="0.2" height="44.7"/>
	
		<rect x="62.5" y="-3.6" transform="matrix(0.2543 -0.9671 0.9671 0.2543 28.5396 74.4957)" class="st7" width="0.2" height="44.7"/>
	<rect x="56.1" y="6.2" transform="matrix(0.634 -0.7733 0.7733 0.634 0.7966 52.8033)" class="st6" width="0.2" height="38.8"/>
	<rect x="56.1" y="6.2" transform="matrix(0.634 -0.7733 0.7733 0.634 0.7966 52.8033)" class="st7" width="0.2" height="38.8"/>
	<polygon class="st6" points="69.4,13.6 69.5,13.7 39,38.3 38.9,38.2 	"/>
	<polygon class="st7" points="69.4,13.6 69.5,13.7 39,38.3 38.9,38.2 	"/>
	
		<rect x="27.3" y="25.6" transform="matrix(6.669821e-02 -0.9978 0.9978 6.669821e-02 11.4956 63.7532)" class="st6" width="25.1" height="0.2"/>
	
		<rect x="27.3" y="25.6" transform="matrix(6.669821e-02 -0.9978 0.9978 6.669821e-02 11.4956 63.7532)" class="st7" width="25.1" height="0.2"/>
	<rect x="30.2" y="31.4" transform="matrix(0.7955 -0.606 0.606 0.7955 -23.684 28.4431)" class="st6" width="0.2" height="35.7"/>
	<rect x="30.2" y="31.4" transform="matrix(0.7955 -0.606 0.606 0.7955 -23.684 28.4431)" class="st7" width="0.2" height="35.7"/>
	<polygon class="st6" points="29.4,80 29.2,80.1 20.1,35.5 20.4,35.5 	"/>
	<polygon class="st7" points="29.4,80 29.2,80.1 20.1,35.5 20.4,35.5 	"/>
	
		<rect x="2.6" y="38.9" transform="matrix(0.3689 -0.9295 0.9295 0.3689 -17.0795 52.8259)" class="st6" width="55.6" height="0.2"/>
	
		<rect x="2.6" y="38.9" transform="matrix(0.3689 -0.9295 0.9295 0.3689 -17.0795 52.8259)" class="st7" width="55.6" height="0.2"/>
	<rect x="13.1" y="51.4" transform="matrix(0.5723 -0.82 0.82 0.5723 -29.563 46.2471)" class="st6" width="32.8" height="0.2"/>
	<rect x="13.1" y="51.4" transform="matrix(0.5723 -0.82 0.82 0.5723 -29.563 46.2471)" class="st7" width="32.8" height="0.2"/>
	<polygon class="st6" points="39.1,38.1 39,38.3 19.6,35.3 19.7,35.1 	"/>
	<polygon class="st7" points="39.1,38.1 39,38.3 19.6,35.3 19.7,35.1 	"/>
	<rect x="16.9" y="24" transform="matrix(0.9181 -0.3964 0.3964 0.9181 -5.9243 19.5042)" class="st6" width="54.7" height="0.2"/>
	<rect x="16.9" y="24" transform="matrix(0.9181 -0.3964 0.3964 0.9181 -5.9243 19.5042)" class="st7" width="54.7" height="0.2"/>
</g>
</svg>
